<?xml version="1.0" encoding="UTF-8"?>
<svg version="1.1" xmlns="http://www.w3.org/2000/svg" width="512" height="512">
<path d="M0 0 C168.96 0 337.92 0 512 0 C512 168.96 512 337.92 512 512 C343.04 512 174.08 512 0 512 C0 343.04 0 174.08 0 0 Z " fill="#AD46FF" transform="translate(0,0)"/>
<path d="M0 0 C2.09053498 -0.00734989 4.18106591 -0.01593878 6.27159119 -0.02566528 C11.91783389 -0.04778068 17.56393026 -0.05081739 23.21021032 -0.04891777 C27.92989834 -0.04879773 32.64955571 -0.05737452 37.36923516 -0.06569529 C48.49927022 -0.08488928 59.62923027 -0.08782603 70.75927734 -0.08105469 C82.23843311 -0.07439989 93.7172687 -0.09734536 105.19635952 -0.13436842 C115.06414831 -0.1650387 124.93183387 -0.17642885 134.79966938 -0.1725316 C140.68849362 -0.17046326 146.57706799 -0.17595857 152.46584702 -0.20042419 C157.99658604 -0.2226475 163.52680162 -0.2208501 169.0575428 -0.20049667 C171.08685905 -0.19708007 173.11621029 -0.20220359 175.1454792 -0.21648026 C177.91529768 -0.23462377 180.68333051 -0.22196096 183.45309448 -0.20153809 C184.25620398 -0.21405593 185.05931349 -0.22657378 185.88675964 -0.23947096 C191.63777332 -0.1485241 194.16136047 1.29077713 198.18017578 5.41992188 C199.38268344 7.82493719 199.30656484 9.31619525 199.30881023 12.00256824 C199.31203468 12.97388402 199.31525913 13.94519979 199.31858128 14.94594938 C199.31703268 16.02072166 199.31548408 17.09549394 199.31388855 18.20283508 C199.31615411 19.33876624 199.31841966 20.47469739 199.32075387 21.6450507 C199.32711907 25.47797688 199.32626288 29.31086793 199.32543945 33.14379883 C199.32788449 35.88158809 199.33180317 38.61937483 199.33561707 41.35716248 C199.34393769 48.04020135 199.34667262 54.7232314 199.34722944 61.40627501 C199.34770432 66.84233045 199.34975767 72.27838297 199.35293007 77.71443748 C199.36174364 93.13127701 199.36634882 108.54810955 199.3655996 123.96495161 C199.36553966 125.21267044 199.36553966 125.21267044 199.36547852 126.4855957 C199.36543763 127.3184268 199.36539675 128.1512579 199.36535463 129.0093263 C199.36494887 142.48313651 199.37449906 155.95691868 199.38861688 169.43072078 C199.40300297 183.27011074 199.40988571 197.10948705 199.40902311 210.94888467 C199.40869171 218.71650289 199.41141303 226.48409179 199.42220116 234.25170326 C199.43133596 240.87147248 199.43345736 247.4911991 199.42669173 254.11097191 C199.42344033 257.48471354 199.42441934 260.8583074 199.43204498 264.23205185 C199.43979907 267.90150271 199.43509726 271.57074207 199.42741394 275.2401886 C199.4325575 276.29042294 199.43770107 277.34065729 199.4430005 278.42271692 C199.31537951 306.17370212 187.73950015 330.89308808 168.18017578 350.41992188 C164.96660722 353.26347387 161.63767253 355.88039326 158.18017578 358.41992188 C157.46216797 358.95359375 156.74416016 359.48726563 156.00439453 360.03710938 C144.1616463 368.39414926 131.13747132 372.25590138 117.18017578 375.41992188 C116.5072754 375.59186947 115.83437502 375.76381706 115.14108372 375.94097519 C110.98598961 376.61308949 106.9028254 376.56443017 102.70018005 376.56036377 C101.74065636 376.56333489 100.78113267 376.56630601 99.7925325 376.56936717 C96.57465152 376.57804437 93.35680778 376.57956161 90.13891602 376.58105469 C87.83255433 376.58568363 85.52619341 376.59070839 83.21983337 376.59609985 C76.9509289 376.60922029 70.68203514 376.61566836 64.41311908 376.62011051 C60.49477733 376.62304238 56.5764385 376.62714745 52.65809822 376.63161469 C41.79857586 376.64372333 30.93905673 376.65410493 20.07952785 376.65748978 C19.38486595 376.65770934 18.69020404 376.65792891 17.97449178 376.65815513 C17.27821007 376.65837341 16.58192835 376.65859168 15.86454719 376.65881658 C14.45372482 376.65926003 13.04290245 376.6597066 11.63208008 376.66015625 C10.5823653 376.66048839 10.5823653 376.66048839 9.51144416 376.66082725 C-1.81598185 376.66477127 -13.14334337 376.68221366 -24.4707445 376.70551577 C-36.11461218 376.72927445 -47.75844438 376.74143615 -59.40233654 376.74285769 C-65.93414621 376.7439045 -72.46586495 376.74978575 -78.99765205 376.76767731 C-85.14623568 376.78419125 -91.29466035 376.78629726 -97.44325829 376.7775383 C-99.69419405 376.77676966 -101.94513847 376.78108774 -104.19605255 376.79099655 C-124.83985328 376.87650876 -142.35303989 374.32966615 -157.82788086 359.54125977 C-171.07231249 346.36450535 -177.12338258 329.77774478 -177.34607041 311.2265172 C-177.35095962 309.03327561 -177.33656482 306.84064913 -177.3215332 304.64746094 C-177.32532876 303.03897125 -177.33083887 301.43048486 -177.33790588 299.82200623 C-177.35171235 295.50602719 -177.34079853 291.19045339 -177.32419467 286.87449741 C-177.31020791 282.33045299 -177.31681923 277.78642887 -177.32032776 273.24237061 C-177.32301812 265.62033659 -177.30965218 257.99846112 -177.28637695 250.37646484 C-177.25973639 241.59216281 -177.25803669 232.80812495 -177.26976532 224.02379632 C-177.28057884 215.53098471 -177.27433051 207.03826769 -177.26021004 198.54546356 C-177.25448501 194.94927456 -177.25450515 191.35315557 -177.25927544 187.75696564 C-177.26408089 183.51811638 -177.25379742 179.2795531 -177.23232079 175.04075813 C-177.22680241 173.49451474 -177.2262415 171.94824358 -177.23127365 170.40199852 C-177.28306564 152.19167393 -172.95587714 137.30507333 -160.81982422 123.41992188 C-160.31064453 122.81664062 -159.80146484 122.21335937 -159.27685547 121.59179688 C-149.95202151 111.36901594 -135.24579099 103.96964895 -121.32035828 103.29966736 C-120.00464592 103.30299828 -120.00464592 103.30299828 -118.66235352 103.30639648 C-117.66169357 103.30647202 -116.66103363 103.30654755 -115.63005066 103.30662537 C-114.56216812 103.31178665 -113.49428558 103.31694794 -112.39404297 103.32226562 C-111.29131546 103.32368057 -110.18858795 103.32509552 -109.05244446 103.32655334 C-105.53737655 103.33214184 -102.02237281 103.34469228 -98.50732422 103.35742188 C-96.12125743 103.36243836 -93.73518964 103.36700101 -91.34912109 103.37109375 C-85.50600032 103.3821075 -79.66291685 103.39883424 -73.81982422 103.41992188 C-73.82981697 102.52361809 -73.82981697 102.52361809 -73.8400116 101.60920715 C-73.90693141 95.33010294 -73.95185719 89.05110177 -73.98461914 82.77172852 C-73.99960682 80.43542356 -74.02000389 78.09914626 -74.04614258 75.76293945 C-74.28606219 53.75149125 -73.10287451 36.29495649 -57.05419922 19.62695312 C-56.31685547 18.89863281 -55.57951172 18.1703125 -54.81982422 17.41992188 C-54.20623047 16.78441406 -53.59263672 16.14890625 -52.96044922 15.49414062 C-38.21403675 1.28338844 -19.33522647 -0.03225061 0 0 Z " fill="#AD46FF" transform="translate(244.81982421875,67.580078125)"/>
<path d="M0 0 C2.09053498 -0.00734989 4.18106591 -0.01593878 6.27159119 -0.02566528 C11.91783389 -0.04778068 17.56393026 -0.05081739 23.21021032 -0.04891777 C27.92989834 -0.04879773 32.64955571 -0.05737452 37.36923516 -0.06569529 C48.49927022 -0.08488928 59.62923027 -0.08782603 70.75927734 -0.08105469 C82.23843311 -0.07439989 93.7172687 -0.09734536 105.19635952 -0.13436842 C115.06414831 -0.1650387 124.93183387 -0.17642885 134.79966938 -0.1725316 C140.68849362 -0.17046326 146.57706799 -0.17595857 152.46584702 -0.20042419 C157.99658604 -0.2226475 163.52680162 -0.2208501 169.0575428 -0.20049667 C171.08685905 -0.19708007 173.11621029 -0.20220359 175.1454792 -0.21648026 C177.91529768 -0.23462377 180.68333051 -0.22196096 183.45309448 -0.20153809 C184.25620398 -0.21405593 185.05931349 -0.22657378 185.88675964 -0.23947096 C191.63777332 -0.1485241 194.16136047 1.29077713 198.18017578 5.41992188 C199.38268344 7.82493719 199.30656484 9.31619525 199.30881023 12.00256824 C199.31203468 12.97388402 199.31525913 13.94519979 199.31858128 14.94594938 C199.31703268 16.02072166 199.31548408 17.09549394 199.31388855 18.20283508 C199.31615411 19.33876624 199.31841966 20.47469739 199.32075387 21.6450507 C199.32711907 25.47797688 199.32626288 29.31086793 199.32543945 33.14379883 C199.32788449 35.88158809 199.33180317 38.61937483 199.33561707 41.35716248 C199.34393769 48.04020135 199.34667262 54.7232314 199.34722944 61.40627501 C199.34770432 66.84233045 199.34975767 72.27838297 199.35293007 77.71443748 C199.36174364 93.13127701 199.36634882 108.54810955 199.3655996 123.96495161 C199.36553966 125.21267044 199.36553966 125.21267044 199.36547852 126.4855957 C199.36543763 127.3184268 199.36539675 128.1512579 199.36535463 129.0093263 C199.36494887 142.48313651 199.37449906 155.95691868 199.38861688 169.43072078 C199.40300297 183.27011074 199.40988571 197.10948705 199.40902311 210.94888467 C199.40869171 218.71650289 199.41141303 226.48409179 199.42220116 234.25170326 C199.43133596 240.87147248 199.43345736 247.4911991 199.42669173 254.11097191 C199.42344033 257.48471354 199.42441934 260.8583074 199.43204498 264.23205185 C199.43979907 267.90150271 199.43509726 271.57074207 199.42741394 275.2401886 C199.4325575 276.29042294 199.43770107 277.34065729 199.4430005 278.42271692 C199.31537951 306.17370212 187.73950015 330.89308808 168.18017578 350.41992188 C164.96660722 353.26347387 161.63767253 355.88039326 158.18017578 358.41992188 C157.46216797 358.95359375 156.74416016 359.48726563 156.00439453 360.03710938 C144.1616463 368.39414926 131.13747132 372.25590138 117.18017578 375.41992188 C116.5072754 375.59186947 115.83437502 375.76381706 115.14108372 375.94097519 C110.98598961 376.61308949 106.9028254 376.56443017 102.70018005 376.56036377 C101.74065636 376.56333489 100.78113267 376.56630601 99.7925325 376.56936717 C96.57465152 376.57804437 93.35680778 376.57956161 90.13891602 376.58105469 C87.83255433 376.58568363 85.52619341 376.59070839 83.21983337 376.59609985 C76.9509289 376.60922029 70.68203514 376.61566836 64.41311908 376.62011051 C60.49477733 376.62304238 56.5764385 376.62714745 52.65809822 376.63161469 C41.79857586 376.64372333 30.93905673 376.65410493 20.07952785 376.65748978 C19.38486595 376.65770934 18.69020404 376.65792891 17.97449178 376.65815513 C17.27821007 376.65837341 16.58192835 376.65859168 15.86454719 376.65881658 C14.45372482 376.65926003 13.04290245 376.6597066 11.63208008 376.66015625 C10.5823653 376.66048839 10.5823653 376.66048839 9.51144416 376.66082725 C-1.81598185 376.66477127 -13.14334337 376.68221366 -24.4707445 376.70551577 C-36.11461218 376.72927445 -47.75844438 376.74143615 -59.40233654 376.74285769 C-65.93414621 376.7439045 -72.46586495 376.74978575 -78.99765205 376.76767731 C-85.14623568 376.78419125 -91.29466035 376.78629726 -97.44325829 376.7775383 C-99.69419405 376.77676966 -101.94513847 376.78108774 -104.19605255 376.79099655 C-124.83985328 376.87650876 -142.35303989 374.32966615 -157.82788086 359.54125977 C-171.07231249 346.36450535 -177.12338258 329.77774478 -177.34607041 311.2265172 C-177.35095962 309.03327561 -177.33656482 306.84064913 -177.3215332 304.64746094 C-177.32532876 303.03897125 -177.33083887 301.43048486 -177.33790588 299.82200623 C-177.35171235 295.50602719 -177.34079853 291.19045339 -177.32419467 286.87449741 C-177.31020791 282.33045299 -177.31681923 277.78642887 -177.32032776 273.24237061 C-177.32301812 265.62033659 -177.30965218 257.99846112 -177.28637695 250.37646484 C-177.25973639 241.59216281 -177.25803669 232.80812495 -177.26976532 224.02379632 C-177.28057884 215.53098471 -177.27433051 207.03826769 -177.26021004 198.54546356 C-177.25448501 194.94927456 -177.25450515 191.35315557 -177.25927544 187.75696564 C-177.26408089 183.51811638 -177.25379742 179.2795531 -177.23232079 175.04075813 C-177.22680241 173.49451474 -177.2262415 171.94824358 -177.23127365 170.40199852 C-177.28306564 152.19167393 -172.95587714 137.30507333 -160.81982422 123.41992188 C-160.31064453 122.81664062 -159.80146484 122.21335937 -159.27685547 121.59179688 C-149.95202151 111.36901594 -135.24579099 103.96964895 -121.32035828 103.29966736 C-120.00464592 103.30299828 -120.00464592 103.30299828 -118.66235352 103.30639648 C-117.66169357 103.30647202 -116.66103363 103.30654755 -115.63005066 103.30662537 C-114.56216812 103.31178665 -113.49428558 103.31694794 -112.39404297 103.32226562 C-111.29131546 103.32368057 -110.18858795 103.32509552 -109.05244446 103.32655334 C-105.53737655 103.33214184 -102.02237281 103.34469228 -98.50732422 103.35742188 C-96.12125743 103.36243836 -93.73518964 103.36700101 -91.34912109 103.37109375 C-85.50600032 103.3821075 -79.66291685 103.39883424 -73.81982422 103.41992188 C-73.82981697 102.52361809 -73.82981697 102.52361809 -73.8400116 101.60920715 C-73.90693141 95.33010294 -73.95185719 89.05110177 -73.98461914 82.77172852 C-73.99960682 80.43542356 -74.02000389 78.09914626 -74.04614258 75.76293945 C-74.28606219 53.75149125 -73.10287451 36.29495649 -57.05419922 19.62695312 C-56.31685547 18.89863281 -55.57951172 18.1703125 -54.81982422 17.41992188 C-54.20623047 16.78441406 -53.59263672 16.14890625 -52.96044922 15.49414062 C-38.21403675 1.28338844 -19.33522647 -0.03225061 0 0 Z M-42.96044922 36.91601562 C-48.38538121 44.40378941 -51.93799855 51.7701526 -51.95010948 61.15586185 C-51.95373383 62.08499993 -51.95735818 63.01413801 -51.96109235 63.97143179 C-51.9600241 64.98367439 -51.95895585 65.995917 -51.95785522 67.03883362 C-51.9606765 68.12086388 -51.96349778 69.20289414 -51.96640456 70.3177132 C-51.9747498 73.95017866 -51.97608876 77.58261363 -51.97753906 81.21508789 C-51.9822074 83.81701239 -51.987351 86.41893607 -51.99293518 89.02085876 C-52.00445328 94.62853898 -52.01270175 100.2362162 -52.01905441 105.8439045 C-52.02939402 114.71512449 -52.0499621 123.5863072 -52.07217407 132.45750427 C-52.07965367 135.49482429 -52.08706746 138.53214446 -52.09446144 141.56946468 C-52.09631201 142.32853433 -52.09816257 143.08760398 -52.10006922 143.86967574 C-52.12099157 152.508247 -52.13982093 161.14682237 -52.15771484 169.78540039 C-52.15935303 170.57492869 -52.16099121 171.36445698 -52.16267903 172.17791038 C-52.1889401 184.96026892 -52.20759722 197.74263033 -52.22430675 210.52500439 C-52.24175462 223.66051858 -52.27062957 236.79597641 -52.30919611 249.93144554 C-52.33253907 258.02600936 -52.34658554 266.12048126 -52.34852375 274.215079 C-52.35089122 280.42721643 -52.36881366 286.63922155 -52.39239311 292.85131264 C-52.39957261 295.39249499 -52.40169365 297.93369763 -52.39829063 300.47488785 C-52.3943768 303.95416293 -52.40891296 307.43290916 -52.42782593 310.91212463 C-52.42229623 311.90875218 -52.41676654 312.90537974 -52.41106927 313.93220812 C-52.5081964 324.34161244 -54.95090386 333.77071897 -59.88232422 342.91992188 C-60.40922852 343.933125 -60.40922852 343.933125 -60.94677734 344.96679688 C-61.89561441 346.789138 -62.85711218 348.60487243 -63.81982422 350.41992188 C-64.48965703 351.75166743 -65.15710934 353.08461996 -65.81982422 354.41992188 C-43.42668506 354.51363352 -21.03357854 354.58403201 1.35971737 354.62717056 C11.75884011 354.64773874 22.15784056 354.67574868 32.55688477 354.72167969 C41.6275698 354.76172421 50.69816619 354.78739636 59.76893717 354.79627585 C64.56562792 354.80146095 69.36206524 354.81352609 74.15867424 354.8428421 C78.68704049 354.87029056 83.21505248 354.87830841 87.74349403 354.8723526 C89.39246938 354.87343984 91.04145842 354.88121657 92.69036102 354.89674377 C106.70078981 355.02203944 121.04760159 353.53713332 133.55517578 346.66992188 C134.20671631 346.32775635 134.85825684 345.98559082 135.52954102 345.63305664 C141.47619221 342.42797201 146.96578903 338.71981246 152.18017578 334.41992188 C152.81052734 333.90300781 153.44087891 333.38609375 154.09033203 332.85351562 C166.77611567 321.32361204 175.99228605 301.65979779 177.40560627 284.71756482 C177.7682187 276.94589131 177.68157108 269.16858801 177.63427734 261.39086914 C177.63314743 258.77785255 177.63378553 256.1648347 177.63604736 253.55181885 C177.63813202 247.95348451 177.62571672 242.35533846 177.60309601 236.75705147 C177.570413 228.66317227 177.56015245 220.56938294 177.55514404 212.47544491 C177.54641676 199.33961691 177.51987136 186.20388898 177.48193359 173.06811523 C177.4451467 160.31746924 177.41686775 147.56685055 177.39990234 134.81616211 C177.39885145 134.02854913 177.39780056 133.24093616 177.39671782 132.42945612 C177.39149719 128.47773693 177.38644247 124.52601754 177.3814702 120.57429802 C177.34008822 87.85609983 177.26971034 55.13802431 177.18017578 22.41992188 C151.8149644 22.32639521 126.44977895 22.25590178 101.08442974 22.21267319 C89.30630916 22.19206606 77.52829586 22.16398074 65.75024414 22.11816406 C55.48203149 22.07823978 45.21389655 22.05247562 34.94560844 22.0435679 C29.5108435 22.03836265 24.07630084 22.02616681 18.64160728 21.99700165 C13.52067024 21.96974429 8.4000459 21.96149773 3.2790432 21.96749115 C1.40501707 21.96639552 -0.4690201 21.95850343 -2.34298325 21.94309998 C-18.31603022 21.81830502 -31.91776677 24.03960306 -42.96044922 36.91601562 Z " fill="#FEFEFF" transform="translate(244.81982421875,67.580078125)"/>
<path d="M0 0 C26.73 0 53.46 0 81 0 C81.12032643 26.05289993 81.12032643 26.05289993 81.14648438 37.19140625 C81.16439072 44.780175 81.18553347 52.36883475 81.22631836 59.95751953 C81.25900698 66.07833676 81.27687315 72.19903703 81.28463173 78.31993484 C81.29015817 80.65061915 81.30094985 82.98129734 81.31719017 85.31193161 C81.33909042 88.58618561 81.34196162 91.85996143 81.34057617 95.13427734 C81.351362 96.08950287 81.36214783 97.04472839 81.3732605 98.02890015 C81.31785218 110.19681029 77.05577958 120.75553427 68.8125 129.75 C60.19332801 137.81617202 49.64919055 141.5713709 38 141.3125 C28.7446002 140.34839585 20.85151558 137.27677476 14 131 C13.38511719 130.47535156 12.77023438 129.95070313 12.13671875 129.41015625 C4.38051064 122.35150861 0.56878447 112.87127205 -0.18040848 102.50337029 C-0.24404743 99.78008569 -0.24767988 97.06355036 -0.22705078 94.33959961 C-0.22734283 93.31416046 -0.22763489 92.28872131 -0.22793579 91.23220825 C-0.22655214 87.87216471 -0.21103655 84.51234814 -0.1953125 81.15234375 C-0.19157894 78.81108216 -0.18873359 76.46981901 -0.18673706 74.1285553 C-0.17912764 67.98832836 -0.15950234 61.84819713 -0.1373291 55.70800781 C-0.11320072 48.3290225 -0.10407688 40.95000505 -0.09242249 33.57099152 C-0.07307636 22.38059459 -0.03473484 11.19040738 0 0 Z " fill="#AD46FF" transform="translate(90,281)"/>
<path d="M0 0 C1.20490082 -0.0127597 2.40980164 -0.02551941 3.6512146 -0.03866577 C4.95434601 -0.04089142 6.25747742 -0.04311707 7.60009766 -0.04541016 C8.95146832 -0.05183829 10.30283758 -0.05856666 11.65420532 -0.06558228 C14.4871137 -0.07755641 17.31990013 -0.08126302 20.15283203 -0.08007812 C23.77677923 -0.07987503 27.39994137 -0.10716541 31.02370262 -0.14162254 C33.81533371 -0.16390039 36.60677622 -0.1679154 39.39848709 -0.16685867 C41.38212132 -0.17035642 43.36569669 -0.19201621 45.34921265 -0.21395874 C47.16602036 -0.20472885 47.16602036 -0.20472885 49.01953125 -0.1953125 C50.08303802 -0.19816254 51.1465448 -0.20101257 52.24227905 -0.20394897 C55.85456332 0.41264141 57.52308523 1.77692009 60.13916016 4.29052734 C61.47638287 6.96497277 61.28845737 9.04302329 61.31616211 12.0378418 C61.33541496 13.84530632 61.33541496 13.84530632 61.35505676 15.68928528 C61.3624437 16.99757797 61.36983063 18.30587067 61.37744141 19.65380859 C61.38151693 20.31872 61.38559246 20.9836314 61.38979149 21.66869164 C61.41065096 25.18871119 61.42495257 28.70869178 61.43432617 32.22875977 C61.44538443 35.86053591 61.47977676 39.49169829 61.51949787 43.12325764 C61.5456739 45.91915507 61.55401886 48.71490657 61.55760765 51.51091576 C61.5648331 53.49900922 61.59126894 55.48700288 61.61799622 57.47492981 C61.61507065 58.68936264 61.61214508 59.90379547 61.60913086 61.1550293 C61.6149971 62.22155228 61.62086334 63.28807526 61.62690735 64.38691711 C61.01494626 68.02998572 59.71685165 69.68786723 57.13916016 72.29052734 C53.99744015 73.33776734 51.76035667 73.42971736 48.46191406 73.45166016 C47.29705475 73.4612677 46.13219543 73.47087524 44.93203735 73.48077393 C43.04296158 73.48714874 43.04296158 73.48714874 41.11572266 73.49365234 C39.82225922 73.49935242 38.52879578 73.50505249 37.19613647 73.51092529 C34.45741381 73.52142407 31.71872041 73.5272741 28.97998047 73.53076172 C25.47725492 73.53624472 21.97491843 73.56027276 18.47231483 73.58873367 C15.1242916 73.61187991 11.77632176 73.61381085 8.42822266 73.61865234 C6.54521957 73.63717255 6.54521957 73.63717255 4.62417603 73.65606689 C3.45301239 73.6530658 2.28184875 73.6500647 1.07519531 73.64697266 C0.04721832 73.65061829 -0.98075867 73.65426392 -2.03988647 73.65802002 C-5.37459355 73.22359936 -7.19920413 72.33070991 -9.86083984 70.29052734 C-12.10368695 67.12957423 -12.11835895 64.30956145 -12.13549805 60.49975586 C-12.14503006 59.33497208 -12.15456207 58.17018829 -12.16438293 56.97010803 C-12.16347153 55.71588547 -12.16256012 54.4616629 -12.16162109 53.16943359 C-12.16590622 51.8773851 -12.17019135 50.58533661 -12.17460632 49.25413513 C-12.1820591 46.52135105 -12.18178419 43.78869617 -12.17651367 41.0559082 C-12.17072037 37.56102281 -12.18765047 34.06666761 -12.21085835 30.57186985 C-12.22916863 27.22936913 -12.22540978 23.88698418 -12.22412109 20.54443359 C-12.23333084 19.29223526 -12.24254059 18.04003693 -12.25202942 16.74989319 C-12.24580063 15.58195724 -12.23957184 14.4140213 -12.2331543 13.21069336 C-12.23378372 12.18573257 -12.23441315 11.16077179 -12.23506165 10.10475159 C-11.7962092 6.80449169 -10.82896647 4.95728866 -8.86083984 2.29052734 C-5.4075806 -0.01164549 -4.0720166 0.02923341 0 0 Z " fill="#FEFEFF" transform="translate(248.86083984375,141.70947265625)"/>
<path d="M0 0 C10.9828125 0.12375 10.9828125 0.12375 22.1875 0.25 C22.1875 22.03 22.1875 43.81 22.1875 66.25 C-4.5425 66.25 -31.2725 66.25 -58.8125 66.25 C-58.8125 24.24733169 -58.8125 24.24733169 -47.12109375 12.40234375 C-46.35925781 11.69207031 -45.59742187 10.98179687 -44.8125 10.25 C-44.18472656 9.65316406 -43.55695313 9.05632812 -42.91015625 8.44140625 C-30.80709695 -1.81932689 -14.8099356 -0.23621479 0 0 Z " fill="#AD46FF" transform="translate(148.8125,192.75)"/>
<path d="M0 0 C1.05563644 -0.00852997 2.11127289 -0.01705994 3.19889832 -0.02584839 C4.93586975 -0.02448883 4.93586975 -0.02448883 6.70793152 -0.02310181 C8.53755684 -0.03317764 8.53755684 -0.03317764 10.40414429 -0.04345703 C13.7514462 -0.05921831 17.09850002 -0.06581319 20.445822 -0.0670886 C22.53792462 -0.06851008 24.63000124 -0.07277965 26.7220974 -0.07808304 C34.02338181 -0.09659087 41.32459318 -0.10475294 48.62590027 -0.10317993 C55.42708594 -0.10197914 62.22795393 -0.1230669 69.02905923 -0.15466726 C74.87121852 -0.18084262 80.71327416 -0.19154667 86.55549163 -0.19026911 C90.04337233 -0.18975973 93.53097091 -0.1954289 97.01879311 -0.21662521 C100.91139179 -0.23963487 104.80355719 -0.2304789 108.69621277 -0.21841431 C109.84812103 -0.22965332 111.0000293 -0.24089233 112.18684387 -0.25247192 C118.38440544 -0.20361242 122.21213049 0.04810712 126.89616394 4.26742554 C128.88393956 7.1192059 129.18181383 9.2711758 128.89616394 12.70492554 C128.85491394 13.44613647 128.81366394 14.18734741 128.77116394 14.95101929 C127.416123 18.5382482 125.22410414 20.53343564 121.89616394 22.26742554 C117.78137016 23.01113856 113.71666368 22.95056927 109.5443573 22.91439819 C108.30305557 22.92315979 107.06175385 22.93192139 105.78283691 22.94094849 C102.38986379 22.95914959 98.99842077 22.95493558 95.60553432 22.93905306 C92.04976701 22.9263618 88.49406343 22.93814283 84.93829346 22.94598389 C78.96897185 22.95506997 72.99995997 22.94311899 67.03068542 22.91928101 C60.13443548 22.89205882 53.23892443 22.90089527 46.34269232 22.92841303 C40.41466486 22.95111826 34.48685956 22.9542978 28.55880266 22.94121969 C25.02124551 22.93343437 21.48403548 22.93235798 17.94650078 22.94890213 C14.00356794 22.96605573 10.06146004 22.94226797 6.11857605 22.91439819 C4.94908417 22.92451935 3.77959229 22.9346405 2.57466125 22.94506836 C-6.22730048 22.82964955 -6.22730048 22.82964955 -9.30523682 19.85198975 C-12.19536298 15.69891525 -12.81725085 12.29025131 -12.10383606 7.26742554 C-8.91374249 2.20727711 -5.97479962 0.02179999 0 0 Z " fill="#FBFDFF" transform="translate(249.1038360595703,324.7325744628906)"/>
<path d="M0 0 C1.05426178 -0.0071553 2.10852356 -0.01431061 3.19473267 -0.02168274 C4.3563089 -0.02437164 5.51788513 -0.02706055 6.71466064 -0.02983093 C7.93426483 -0.03640213 9.15386902 -0.04297333 10.41043091 -0.04974365 C14.46138755 -0.06951418 18.51230455 -0.08114776 22.56329346 -0.09111023 C23.95802073 -0.09515774 25.3527478 -0.09927466 26.74747467 -0.10346031 C33.30100667 -0.12251483 39.85452739 -0.1367444 46.40808177 -0.14507228 C53.97084162 -0.15484133 61.53330851 -0.18115073 69.09596515 -0.22157317 C74.94233788 -0.25174847 80.78862672 -0.26654255 86.63507581 -0.26985329 C90.12634348 -0.27220254 93.61729829 -0.28114562 97.10848236 -0.30631447 C101.00594927 -0.33395768 104.90303197 -0.32975968 108.80059814 -0.32279968 C109.95407745 -0.33560974 111.10755676 -0.3484198 112.29598999 -0.36161804 C118.50231551 -0.32117325 122.32245551 -0.0725661 127.01641846 4.14717102 C129.36884192 7.3550212 129.48483936 10.24366354 129.01641846 14.14717102 C126.97647937 17.80499282 125.51222584 19.81663276 122.01641846 22.14717102 C119.66221809 22.40723324 119.66221809 22.40723324 116.82992554 22.42132568 C115.21906067 22.43628838 115.21906067 22.43628838 113.57565308 22.45155334 C112.3973996 22.45221802 111.21914612 22.45288269 110.00518799 22.4535675 C108.76432434 22.46189102 107.52346069 22.47021454 106.24499512 22.47879028 C102.83991799 22.49878075 99.43508559 22.50953515 96.02997065 22.51461673 C93.90236374 22.51825941 91.77478039 22.52449899 89.64718246 22.53161812 C82.22386389 22.55611545 74.80061523 22.56916509 67.3772583 22.57270813 C60.45897668 22.57634357 53.54113866 22.60623829 46.62299263 22.64811271 C40.68233568 22.68280924 34.74182578 22.69825645 28.80106819 22.69895416 C25.25334364 22.69974722 21.70607089 22.70849791 18.15845108 22.73695183 C14.20093879 22.76798333 10.24406384 22.75907579 6.28643799 22.74653625 C5.11223297 22.76137054 3.93802795 22.77620483 2.72824097 22.79148865 C-6.11068949 22.71154776 -6.11068949 22.71154776 -9.18795776 19.73471069 C-12.05434013 15.60418059 -12.8367813 12.1458087 -11.98358154 7.14717102 C-8.95999336 1.87845578 -5.92113167 0.02751821 0 0 Z " fill="#FEFEFF" transform="translate(248.98358154296875,258.8528289794922)"/>
<path d="M0 0 C9.57 0 19.14 0 29 0 C29 9.57 29 19.14 29 29 C19.43 29 9.86 29 0 29 C0 19.43 0 9.86 0 0 Z " fill="#AD46FF" transform="translate(259,164)"/>
</svg>
